HIERARCHY
ROOT newVegas:Hips
{
	OFFSET 0.000000 96.479958 0.000000
	CHANNELS 6 Xposition Yposition Zposition Xrotation Yrotation Zrotation
	JOINT newVegas:Pelvis
	{
		OFFSET 0.000000 0.000000 0.000000
		CHANNELS 3 Xrotation Yrotation Zrotation
		JOINT newVegas:LeftUpLeg
		{
			OFFSET 18.735201 -5.666702 -4.541200
			CHANNELS 3 Xrotation Yrotation Zrotation
			JOINT newVegas:LeftLeg
			{
				OFFSET -0.021200 -31.938179 0.493100
				CHANNELS 3 Xrotation Yrotation Zrotation
				JOINT newVegas:LeftFoot
				{
					OFFSET 0.021200 -31.938179 -4.336299
					CHANNELS 3 Xrotation Yrotation Zrotation
					JOINT newVegas:LeftToeBase
					{
						OFFSET 0.943001 -26.722000 15.023500
						CHANNELS 3 Xrotation Yrotation Zrotation
						End Site
						{
							OFFSET 0.000000 30.670183 0.000000
						}
					}
				}
				JOINT newVegas:Left_PantLeg
				{
					OFFSET 0.663870 -9.044666 -1.108900
					CHANNELS 3 Xrotation Yrotation Zrotation
					End Site
					{
						OFFSET 1.415995 20.635357 0.000000
					}
				}
			}
		}
		JOINT newVegas:RightUpLeg
		{
			OFFSET -18.735201 -5.666702 -4.541200
			CHANNELS 3 Xrotation Yrotation Zrotation
			JOINT newVegas:RightLeg
			{
				OFFSET 0.018946 -31.938133 0.493100
				CHANNELS 3 Xrotation Yrotation Zrotation
				JOINT newVegas:RightFoot
				{
					OFFSET -0.018946 -31.938126 -4.336299
					CHANNELS 3 Xrotation Yrotation Zrotation
					JOINT newVegas:RightToeBase
					{
						OFFSET -0.943001 -26.722004 15.023500
						CHANNELS 3 Xrotation Yrotation Zrotation
						End Site
						{
							OFFSET 0.000000 30.670187 0.000000
						}
					}
				}
				JOINT newVegas:Right_PantLeg
				{
					OFFSET -0.661674 -9.044716 -1.108900
					CHANNELS 3 Xrotation Yrotation Zrotation
					End Site
					{
						OFFSET -1.415958 20.635269 0.000000
					}
				}
			}
		}
	}
	JOINT newVegas:Spine
	{
		OFFSET 0.000000 10.199997 -0.299500
		CHANNELS 3 Xrotation Yrotation Zrotation
		JOINT newVegas:Spine1
		{
			OFFSET 0.000000 11.900002 -1.516600
			CHANNELS 3 Xrotation Yrotation Zrotation
			JOINT newVegas:Spine2
			{
				OFFSET 0.000000 13.600006 -2.842500
				CHANNELS 3 Xrotation Yrotation Zrotation
				JOINT newVegas:Neck
				{
					OFFSET 0.000000 9.624100 -2.890100
					CHANNELS 3 Xrotation Yrotation Zrotation
					JOINT newVegas:Head
					{
						OFFSET 0.000000 14.068802 -1.351900
						CHANNELS 3 Xrotation Yrotation Zrotation
						JOINT newVegas:Hair_Back
						{
							OFFSET 0.000000 3.231903 -17.524799
							CHANNELS 3 Xrotation Yrotation Zrotation
							End Site
							{
								OFFSET 0.000000 19.849884 0.000000
							}
						}
						JOINT newVegas:Hair_Front
						{
							OFFSET 0.000000 31.260406 4.573800
							CHANNELS 3 Xrotation Yrotation Zrotation
							JOINT newVegas:Hair_Front1
							{
								OFFSET 0.000000 2.284103 11.993300
								CHANNELS 3 Xrotation Yrotation Zrotation
								JOINT newVegas:Hair_Front2
								{
									OFFSET 0.000000 2.284103 11.993300
									CHANNELS 3 Xrotation Yrotation Zrotation
									End Site
									{
										OFFSET 0.000000 12.208862 0.000000
									}
								}
							}
						}
						JOINT newVegas:Jowel
						{
							OFFSET 0.000000 -7.458206 6.864100
							CHANNELS 3 Xrotation Yrotation Zrotation
							End Site
							{
								OFFSET 0.000000 19.849884 0.000000
							}
						}
					}
				}
				JOINT newVegas:LeftShoulder
				{
					OFFSET 15.263000 10.923401 -0.547700
					CHANNELS 3 Xrotation Yrotation Zrotation
					JOINT newVegas:LeftArm
					{
						OFFSET 25.438599 -2.830597 -13.032500
						CHANNELS 3 Xrotation Yrotation Zrotation
						JOINT newVegas:LeftForeArm
						{
							OFFSET 29.960503 0.000000 0.000000
							CHANNELS 3 Xrotation Yrotation Zrotation
							JOINT newVegas:LeftHand
							{
								OFFSET 27.849251 0.000000 0.000000
								CHANNELS 3 Xrotation Yrotation Zrotation
								JOINT newVegas:LeftHandThumb1
								{
									OFFSET 4.487587 -3.305161 6.305391
									CHANNELS 3 Xrotation Yrotation Zrotation
									JOINT newVegas:LeftHandThumb2
									{
										OFFSET 5.480453 -3.164139 3.164143
										CHANNELS 3 Xrotation Yrotation Zrotation
										JOINT newVegas:LeftHandThumb3
										{
											OFFSET 5.159721 -2.978973 2.978967
											CHANNELS 3 Xrotation Yrotation Zrotation
											End Site
											{
												OFFSET 2.494507 5.926697 1.738678
											}
										}
									}
								}
								JOINT newVegas:LeftHandIndex1
								{
									OFFSET 18.578728 -0.527832 5.208049
									CHANNELS 3 Xrotation Yrotation Zrotation
									JOINT newVegas:LeftHandIndex2
									{
										OFFSET 3.192009 0.000000 0.000000
										CHANNELS 3 Xrotation Yrotation Zrotation
										JOINT newVegas:LeftHandIndex3
										{
											OFFSET 3.835129 0.000000 0.000000
											CHANNELS 3 Xrotation Yrotation Zrotation
											End Site
											{
												OFFSET -0.034599 3.816971 0.371180
											}
										}
									}
								}
								JOINT newVegas:LeftHandMiddle1
								{
									OFFSET 18.476105 0.000000 0.000000
									CHANNELS 3 Xrotation Yrotation Zrotation
									JOINT newVegas:LeftHandMiddle2
									{
										OFFSET 3.324875 0.000000 0.000000
										CHANNELS 3 Xrotation Yrotation Zrotation
										JOINT newVegas:LeftHandMiddle3
										{
											OFFSET 4.596550 0.000000 0.000000
											CHANNELS 3 Xrotation Yrotation Zrotation
											End Site
											{
												OFFSET 0.057701 4.578827 0.399218
											}
										}
									}
								}
								JOINT newVegas:LeftHandRing1
								{
									OFFSET 17.732719 0.121887 -4.201567
									CHANNELS 3 Xrotation Yrotation Zrotation
									JOINT newVegas:LeftHandRing2
									{
										OFFSET 2.733170 0.000000 0.000000
										CHANNELS 3 Xrotation Yrotation Zrotation
										JOINT newVegas:LeftHandRing3
										{
											OFFSET 3.178268 0.000000 0.000000
											CHANNELS 3 Xrotation Yrotation Zrotation
											End Site
											{
												OFFSET 0.119102 3.170624 0.185394
											}
										}
									}
								}
								JOINT newVegas:LeftHandPinky1
								{
									OFFSET 15.989624 -0.606689 -7.535461
									CHANNELS 3 Xrotation Yrotation Zrotation
									JOINT newVegas:LeftHandPinky2
									{
										OFFSET 2.538986 0.000000 0.000000
										CHANNELS 3 Xrotation Yrotation Zrotation
										JOINT newVegas:LeftHandPinky3
										{
											OFFSET 2.593102 0.000000 0.000000
											CHANNELS 3 Xrotation Yrotation Zrotation
											End Site
											{
												OFFSET -0.150902 2.584198 0.152708
											}
										}
									}
								}
							}
							JOINT newVegas:Left_Sleeve
							{
								OFFSET 0.267448 -0.649796 0.577675
								CHANNELS 3 Xrotation Yrotation Zrotation
								End Site
								{
									OFFSET 0.000000 15.991241 0.000000
								}
							}
							JOINT newVegas:Left_CapeC
							{
								OFFSET 15.715958 -8.608795 -6.935905
								CHANNELS 3 Xrotation Yrotation Zrotation
								JOINT newVegas:Left_CapeC1
								{
									OFFSET 0.000000 -8.688499 0.000000
									CHANNELS 3 Xrotation Yrotation Zrotation
									End Site
									{
										OFFSET 0.000000 8.688499 0.000000
									}
								}
							}
						}
						JOINT newVegas:Left_CapeB
						{
							OFFSET 26.118385 -8.608795 -7.079235
							CHANNELS 3 Xrotation Yrotation Zrotation
							JOINT newVegas:Left_CapeB1
							{
								OFFSET 0.000000 -8.688499 0.000000
								CHANNELS 3 Xrotation Yrotation Zrotation
								End Site
								{
									OFFSET 0.000000 8.688499 0.000000
								}
							}
						}
						JOINT newVegas:Left_CapeA
						{
							OFFSET 5.115639 -8.608795 -10.395809
							CHANNELS 3 Xrotation Yrotation Zrotation
							JOINT newVegas:Left_CapeA1
							{
								OFFSET 0.000000 -8.688499 0.000000
								CHANNELS 3 Xrotation Yrotation Zrotation
								End Site
								{
									OFFSET 0.000000 8.688499 0.000000
								}
							}
						}
					}
				}
				JOINT newVegas:RightShoulder
				{
					OFFSET -15.263000 10.923401 -0.547700
					CHANNELS 3 Xrotation Yrotation Zrotation
					JOINT newVegas:RightArm
					{
						OFFSET -25.438599 -2.830597 -13.032500
						CHANNELS 3 Xrotation Yrotation Zrotation
						JOINT newVegas:RightForeArm
						{
							OFFSET -29.960503 0.000000 0.000000
							CHANNELS 3 Xrotation Yrotation Zrotation
							JOINT newVegas:RightHand
							{
								OFFSET -27.849251 0.000000 0.000000
								CHANNELS 3 Xrotation Yrotation Zrotation
								JOINT newVegas:RightHandThumb1
								{
									OFFSET -4.487587 -3.305161 6.305391
									CHANNELS 3 Xrotation Yrotation Zrotation
									JOINT newVegas:RightHandThumb2
									{
										OFFSET -5.480453 -3.164139 3.164143
										CHANNELS 3 Xrotation Yrotation Zrotation
										JOINT newVegas:RightHandThumb3
										{
											OFFSET -5.159721 -2.978973 2.978967
											CHANNELS 3 Xrotation Yrotation Zrotation
											End Site
											{
												OFFSET -2.494507 5.926697 1.738678
											}
										}
									}
								}
								JOINT newVegas:RightHandIndex1
								{
									OFFSET -18.578728 -0.527832 5.208049
									CHANNELS 3 Xrotation Yrotation Zrotation
									JOINT newVegas:RightHandIndex2
									{
										OFFSET -3.192009 0.000000 0.000000
										CHANNELS 3 Xrotation Yrotation Zrotation
										JOINT newVegas:RightHandIndex3
										{
											OFFSET -3.835129 0.000000 0.000000
											CHANNELS 3 Xrotation Yrotation Zrotation
											End Site
											{
												OFFSET 0.034599 3.816971 0.371180
											}
										}
									}
								}
								JOINT newVegas:RightHandMiddle1
								{
									OFFSET -18.476105 0.000000 0.000000
									CHANNELS 3 Xrotation Yrotation Zrotation
									JOINT newVegas:RightHandMiddle2
									{
										OFFSET -3.324875 0.000000 0.000000
										CHANNELS 3 Xrotation Yrotation Zrotation
										JOINT newVegas:RightHandMiddle3
										{
											OFFSET -4.596550 0.000000 0.000000
											CHANNELS 3 Xrotation Yrotation Zrotation
											End Site
											{
												OFFSET -0.057701 4.578827 0.399218
											}
										}
									}
								}
								JOINT newVegas:RightHandRing1
								{
									OFFSET -17.732719 0.121887 -4.201567
									CHANNELS 3 Xrotation Yrotation Zrotation
									JOINT newVegas:RightHandRing2
									{
										OFFSET -2.733170 0.000000 0.000000
										CHANNELS 3 Xrotation Yrotation Zrotation
										JOINT newVegas:RightHandRing3
										{
											OFFSET -3.178268 0.000000 0.000000
											CHANNELS 3 Xrotation Yrotation Zrotation
											End Site
											{
												OFFSET -0.119102 3.170624 0.185394
											}
										}
									}
								}
								JOINT newVegas:RightHandPinky1
								{
									OFFSET -15.989624 -0.606689 -7.535461
									CHANNELS 3 Xrotation Yrotation Zrotation
									JOINT newVegas:RightHandPinky2
									{
										OFFSET -2.538986 0.000000 0.000000
										CHANNELS 3 Xrotation Yrotation Zrotation
										JOINT newVegas:RightHandPinky3
										{
											OFFSET -2.593102 0.000000 0.000000
											CHANNELS 3 Xrotation Yrotation Zrotation
											End Site
											{
												OFFSET 0.150902 2.584198 0.152708
											}
										}
									}
								}
							}
							JOINT newVegas:Right_CapeC
							{
								OFFSET -15.715958 -8.608795 -6.935905
								CHANNELS 3 Xrotation Yrotation Zrotation
								JOINT newVegas:Right_CapeC1
								{
									OFFSET 0.000000 -8.688499 0.000000
									CHANNELS 3 Xrotation Yrotation Zrotation
									End Site
									{
										OFFSET 0.000000 8.688499 0.000000
									}
								}
							}
							JOINT newVegas:Right_Sleeve
							{
								OFFSET -0.267448 -0.649994 0.577675
								CHANNELS 3 Xrotation Yrotation Zrotation
								End Site
								{
									OFFSET 0.000000 15.991302 0.000000
								}
							}
						}
						JOINT newVegas:Right_CapeA
						{
							OFFSET -5.115540 -8.608795 -10.395824
							CHANNELS 3 Xrotation Yrotation Zrotation
							JOINT newVegas:Right_CapeA1
							{
								OFFSET 0.000000 -8.688499 0.000000
								CHANNELS 3 Xrotation Yrotation Zrotation
								End Site
								{
									OFFSET 0.000000 8.688499 0.000000
								}
							}
						}
						JOINT newVegas:Right_CapeB
						{
							OFFSET -26.118187 -8.608795 -7.079266
							CHANNELS 3 Xrotation Yrotation Zrotation
							JOINT newVegas:Right_CapeB1
							{
								OFFSET 0.000000 -8.688499 0.000000
								CHANNELS 3 Xrotation Yrotation Zrotation
								End Site
								{
									OFFSET 0.000000 8.688499 0.000000
								}
							}
						}
					}
				}
				JOINT newVegas:Left_Collar
				{
					OFFSET 18.625099 8.655502 8.828100
					CHANNELS 3 Xrotation Yrotation Zrotation
					JOINT newVegas:Left_Collar1
					{
						OFFSET 14.783401 10.540405 -1.259500
						CHANNELS 3 Xrotation Yrotation Zrotation
						End Site
						{
							OFFSET 0.000000 18.199875 0.000000
						}
					}
				}
				JOINT newVegas:Collar_Back
				{
					OFFSET 0.000000 15.630707 -20.132601
					CHANNELS 3 Xrotation Yrotation Zrotation
					End Site
					{
						OFFSET 0.000000 22.523010 0.000000
					}
				}
				JOINT newVegas:Left_Peck
				{
					OFFSET 17.239599 -5.132599 25.482599
					CHANNELS 3 Xrotation Yrotation Zrotation
					End Site
					{
						OFFSET 0.000000 22.523010 0.000000
					}
				}
				JOINT newVegas:Right_Peck
				{
					OFFSET -17.239599 -5.132202 25.482599
					CHANNELS 3 Xrotation Yrotation Zrotation
					End Site
					{
						OFFSET 0.000000 22.523010 0.000000
					}
				}
				JOINT newVegas:Right_Collar
				{
					OFFSET -18.625099 8.655792 8.828100
					CHANNELS 3 Xrotation Yrotation Zrotation
					JOINT newVegas:Right_Collar1
					{
						OFFSET -14.783401 10.539993 -1.259500
						CHANNELS 3 Xrotation Yrotation Zrotation
						End Site
						{
							OFFSET 0.000000 18.199631 0.000000
						}
					}
				}
			}
		}
		JOINT newVegas:Belly
		{
			OFFSET 0.000000 -6.540398 9.014299
			CHANNELS 3 Xrotation Yrotation Zrotation
			End Site
			{
				OFFSET 0.000000 11.566666 0.000000
			}
		}
	}
	JOINT newVegas:ElvisFacialAnim_Joint
	{
		OFFSET 1.000000 -95.330101 -8.825800
		CHANNELS 3 Xrotation Yrotation Zrotation
		End Site
		{
			OFFSET 0.000000 35.315800 0.000000
		}
	}
}
MOTION
Frames: 4
Frame Time: 0.033333
0.466736 89.637222 4.819462 21.120584 3.981009 2.208811 -0.000001 0.000000 -0.000000 -55.596073 8.709400 2.680309 59.441326 2.079874 -1.632386 10.296835 0.194090 -2.623086 0.000003 0.000001 -0.000001 -0.000001 -0.000000 0.000000 -33.771256 -7.467165 -1.048135 37.769795 -3.846923 1.647154 -25.656431 1.745636 -3.420236 -0.000000 0.000000 -0.000000 -0.000002 -0.000000 -0.000000 12.028757 1.022457 0.720082 -1.754534 -0.115612 -1.900977 1.110383 -0.283059 -0.987869 -3.313509 1.087146 0.174010 -3.313527 1.087147 0.174008 -0.000000 0.000000 -0.000000 -3.313515 1.087142 0.174010 -3.313443 1.087145 0.174007 -0.000001 0.000001 -0.000000 -0.000000 0.000000 -0.000000 3.377996 4.651147 -26.255872 7.055190 -10.249135 -41.002899 -0.000001 -43.567687 -0.000026 -21.225977 -1.970580 -10.220739 12.119564 -4.042008 -26.850286 12.608533 30.416400 17.640572 -0.000000 0.000003 -0.000003 3.990404 1.667042 -89.987298 4.616835 5.719851 -77.801988 0.000000 -0.000000 0.000000 6.095796 8.196458 -91.723382 5.306099 5.825702 -84.646603 0.000000 0.000001 0.000000 6.025839 8.198114 -91.037556 5.868233 5.851020 -90.168435 0.000000 -0.000001 0.000000 5.762445 8.197017 -88.455437 4.302482 5.643086 -74.627494 0.000000 -0.000002 -0.000000 -0.000000 -0.000000 0.000001 -0.000000 -0.000000 0.000001 -0.000001 -0.000000 0.000001 -0.000000 -0.000002 0.000001 -0.000001 -0.000002 0.000000 -0.000000 -0.000002 0.000001 -0.000000 -0.000002 0.000001 1.027305 5.714455 19.615617 16.837694 -1.583356 52.460251 0.000001 53.497737 -0.000003 -27.257402 -0.867821 1.783553 36.463709 28.011670 -1.058069 20.129980 -38.060809 -2.036989 -0.000001 -0.000002 -0.000001 2.804539 -0.374376 89.233635 3.675988 -4.552858 77.824651 -0.000000 -0.000001 -0.000001 4.786597 -6.931031 90.956284 4.223956 -4.637009 84.656827 -0.000001 -0.000000 0.000001 4.731028 -6.931612 90.272418 4.670830 -4.657135 90.168121 0.000000 0.000001 0.000001 4.521896 -6.927990 87.697778 3.426040 -4.491821 74.655532 0.000001 -0.000000 -0.000001 -0.000001 0.000000 0.000000 -0.000001 0.000000 0.000000 -0.000001 0.000000 0.000001 0.000000 0.000003 -0.000000 0.000000 0.000003 -0.000000 0.000000 0.000003 -0.000000 0.000000 0.000003 -0.000001 0.000000 0.000000 -0.000000 0.000000 0.000000 -0.000000 0.000000 0.000000 -0.000000 0.000000 0.000000 -0.000000 0.000000 0.000000 -0.000000 0.000000 0.000000 -0.000000 0.000000 0.000000 -0.000000 -0.000000 -0.000000 -0.000000 -0.000001 0.000000 -0.000000 
0.422766 89.388428 10.046051 22.012158 3.601916 2.421603 -0.000000 -0.000000 -0.000000 -61.050642 8.804018 2.066564 53.729936 3.489699 -2.191389 9.655707 0.240236 -2.101783 -0.000001 -0.000001 0.000001 0.000001 -0.000000 0.000001 -30.330804 -7.969197 -1.032990 37.043370 -3.052654 1.575732 -27.004818 1.780348 -3.624585 0.000000 -0.000000 0.000000 0.000001 -0.000001 -0.000000 11.876651 1.281813 0.381515 -1.809139 -0.301211 -1.894461 1.061234 -0.753036 -0.858761 -3.401240 1.343323 0.155500 -3.401214 1.343321 0.155501 0.000000 0.000000 -0.000000 -3.401235 1.343325 0.155500 -3.401220 1.343320 0.155502 0.000000 -0.000000 -0.000000 0.000000 0.000000 -0.000000 3.756118 5.083725 -24.861178 7.647234 -11.323239 -41.975416 0.000001 -44.098297 -0.000012 -22.771321 -2.550628 -9.328414 12.119565 -4.042007 -26.850292 12.608524 30.416400 17.640574 -0.000000 -0.000001 0.000000 3.990404 1.667042 -89.987298 4.616837 5.719851 -77.801988 0.000001 0.000001 0.000000 6.095795 8.196458 -91.723389 5.306099 5.825702 -84.646603 0.000000 -0.000001 -0.000000 6.025838 8.198116 -91.037556 5.868235 5.851024 -90.168435 -0.000000 0.000001 0.000000 5.762444 8.197022 -88.455437 4.302481 5.643084 -74.627494 0.000001 0.000000 -0.000003 0.000000 0.000000 0.000001 0.000000 0.000000 0.000001 -0.000001 0.000001 0.000001 -0.000001 -0.000002 -0.000003 -0.000001 -0.000003 -0.000003 -0.000001 -0.000002 -0.000003 -0.000001 -0.000003 -0.000003 0.414644 7.401780 17.404806 17.119984 -1.115946 54.826150 0.000004 52.148996 -0.000005 -27.712524 0.692388 1.681019 36.463720 28.011666 -1.058067 20.129985 -38.060802 -2.036996 0.000004 0.000001 -0.000000 2.804539 -0.374375 89.233635 3.675988 -4.552858 77.824651 -0.000000 0.000000 0.000000 4.786596 -6.931031 90.956284 4.223955 -4.637009 84.656827 0.000001 -0.000000 -0.000000 4.731030 -6.931611 90.272418 4.670830 -4.657132 90.168121 -0.000000 0.000001 -0.000000 4.521896 -6.927987 87.697785 3.426045 -4.491822 74.655532 0.000000 -0.000002 -0.000001 -0.000002 0.000000 -0.000000 -0.000002 0.000000 -0.000000 -0.000002 0.000000 -0.000000 -0.000000 0.000003 -0.000001 -0.000000 0.000003 -0.000001 -0.000000 0.000003 -0.000001 -0.000000 0.000003 -0.000001 0.000000 0.000000 -0.000000 0.000000 0.000000 -0.000000 0.000000 0.000000 -0.000000 0.000000 0.000000 -0.000000 0.000000 0.000000 -0.000000 0.000000 0.000000 -0.000000 0.000000 0.000000 -0.000000 0.000001 0.000000 -0.000000 -0.000000 -0.000000 -0.000000 
0.470091 88.571838 15.101126 22.762212 3.361706 2.617543 -0.000001 0.000000 -0.000000 -64.384997 8.412358 0.936715 45.473289 5.143491 -2.666034 8.799398 0.325012 -0.892189 -0.000000 -0.000001 0.000000 0.000000 -0.000001 0.000001 -27.666064 -8.371670 -1.433228 38.074326 -2.264933 1.521305 -29.166889 1.552450 -3.065233 0.000000 -0.000001 0.000000 -0.000001 -0.000001 -0.000001 11.606996 1.514220 0.040320 -1.813007 -0.685167 -1.867107 1.085881 -1.248983 -0.752164 -3.478203 1.611612 0.140006 -3.478185 1.611614 0.140007 0.000001 0.000001 -0.000000 -3.478139 1.611618 0.140002 -3.478331 1.611612 0.140010 -0.000001 0.000000 -0.000001 0.000001 0.000001 -0.000000 4.157996 5.605582 -23.374586 8.269884 -11.807068 -43.167584 0.000008 -45.664411 0.000018 -23.889746 -2.533172 -8.291093 12.119565 -4.042007 -26.850293 12.608531 30.416393 17.640575 0.000000 0.000002 0.000001 3.990405 1.667043 -89.987292 4.616833 5.719852 -77.801988 0.000000 0.000002 0.000001 6.095796 8.196459 -91.723382 5.306099 5.825702 -84.646603 0.000001 -0.000001 -0.000001 6.025839 8.198116 -91.037556 5.868239 5.851023 -90.168435 -0.000001 0.000001 0.000000 5.762444 8.197015 -88.455430 4.302480 5.643085 -74.627494 0.000001 -0.000003 -0.000002 0.000001 0.000000 0.000000 0.000001 0.000000 0.000000 -0.000000 0.000000 0.000000 -0.000000 -0.000003 0.000001 -0.000000 -0.000003 0.000001 -0.000000 -0.000003 0.000001 -0.000000 -0.000004 0.000001 -0.074975 9.145938 15.231742 18.274905 -1.319493 57.018375 0.000023 52.894672 0.000010 -28.228753 1.292791 1.379203 36.463709 28.011670 -1.058069 20.129985 -38.060806 -2.036998 -0.000000 -0.000001 0.000001 2.804540 -0.374375 89.233628 3.675989 -4.552859 77.824651 0.000000 -0.000002 -0.000001 4.786597 -6.931030 90.956284 4.223956 -4.637009 84.656827 0.000000 0.000000 0.000000 4.731028 -6.931610 90.272418 4.670829 -4.657135 90.168121 0.000001 0.000001 0.000000 4.521894 -6.927986 87.697785 3.426043 -4.491825 74.655532 -0.000000 -0.000000 0.000001 0.000001 0.000000 -0.000000 0.000001 0.000000 0.000000 0.000001 0.000000 0.000000 -0.000001 -0.000003 -0.000002 -0.000001 -0.000002 -0.000001 -0.000001 -0.000003 -0.000002 -0.000001 -0.000002 -0.000001 -0.000004 -0.000000 0.000000 -0.000004 -0.000000 0.000000 -0.000004 -0.000000 0.000000 -0.000004 -0.000000 0.000000 -0.000004 -0.000000 0.000000 -0.000004 -0.000000 0.000000 -0.000004 -0.000000 0.000000 -0.000000 0.000001 0.000000 -0.000001 0.000000 -0.000000 
0.582176 87.507065 20.023426 23.180209 3.067719 2.853882 0.000001 -0.000000 -0.000000 -67.518250 7.055808 -0.241863 40.427466 6.020557 -2.678481 1.752760 0.315539 -1.548153 -0.000000 -0.000000 0.000000 -0.000000 0.000001 0.000001 -25.183355 -8.133778 -1.813338 39.770095 -2.245623 1.457250 -31.053141 1.178472 -2.122134 0.000001 0.000000 -0.000000 -0.000000 -0.000000 -0.000001 11.472542 1.696701 -0.371389 -1.779169 -1.138123 -1.841624 1.159311 -1.729673 -0.674515 -3.507592 1.911408 0.149462 -3.507573 1.911407 0.149458 -0.000001 0.000000 -0.000000 -3.507584 1.911398 0.149464 -3.507509 1.911414 0.149458 -0.000001 -0.000000 0.000000 -0.000001 0.000000 -0.000000 4.523896 6.143557 -21.940857 9.248690 -11.984836 -44.202679 -0.000010 -47.835295 0.000001 -25.026993 -2.291771 -7.026068 12.119566 -4.042008 -26.850286 12.608525 30.416396 17.640575 -0.000000 -0.000004 -0.000003 3.990404 1.667044 -89.987298 4.616836 5.719851 -77.801988 0.000000 0.000001 0.000001 6.095796 8.196459 -91.723389 5.306100 5.825701 -84.646603 0.000000 -0.000000 -0.000001 6.025837 8.198118 -91.037556 5.868236 5.851024 -90.168442 -0.000000 -0.000001 0.000000 5.762446 8.197021 -88.455430 4.302483 5.643085 -74.627494 0.000000 -0.000005 -0.000001 -0.000001 0.000000 0.000001 -0.000001 0.000000 0.000001 -0.000002 0.000000 0.000001 -0.000001 -0.000001 -0.000001 -0.000001 -0.000002 -0.000002 -0.000001 -0.000001 -0.000001 -0.000001 -0.000003 -0.000001 -0.431592 10.844049 13.206733 19.655519 -1.142607 58.769468 0.000019 53.933107 -0.000022 -29.117264 1.704047 1.003901 36.463716 28.011670 -1.058069 20.129985 -38.060806 -2.036998 -0.000000 -0.000003 -0.000001 2.804540 -0.374375 89.233635 3.675990 -4.552858 77.824651 -0.000000 0.000000 0.000000 4.786597 -6.931031 90.956284 4.223955 -4.637009 84.656827 0.000000 0.000000 -0.000000 4.731030 -6.931612 90.272418 4.670830 -4.657135 90.168121 -0.000001 0.000001 0.000000 4.521898 -6.927985 87.697785 3.426041 -4.491823 74.655532 -0.000001 -0.000000 -0.000000 0.000000 0.000000 -0.000000 0.000000 0.000000 -0.000000 0.000000 0.000000 -0.000000 -0.000001 -0.000003 0.000000 -0.000001 -0.000002 0.000002 -0.000001 -0.000003 0.000000 -0.000001 -0.000003 0.000001 -0.000000 -0.000000 0.000000 -0.000000 -0.000000 0.000000 -0.000000 -0.000000 0.000000 -0.000000 -0.000000 0.000000 -0.000000 -0.000000 0.000000 -0.000000 -0.000000 0.000000 -0.000000 -0.000000 0.000000 -0.000001 -0.000000 -0.000000 0.000001 -0.000000 -0.000000 
